<svg width="154" height="32" viewBox="0 0 154 32" fill="none" xmlns="http://www.w3.org/2000/svg">
  <rect x="0.5" y="0.5" width="31" height="31" rx="8.5" fill="#2F7EA1"/>
  <path d="M9.5 9.5C9.5 8.94772 9.94772 8.5 10.5 8.5H16.1667C20.2168 8.5 23.5 11.7832 23.5 15.8333C23.5 19.8834 20.2168 23.1667 16.1667 23.1667H10.5C9.94772 23.1667 9.5 22.719 9.5 22.1667V9.5Z" fill="#4A4A4A"/>
  <path d="M12.5 11.5H16.1667C19.1122 11.5 21.5 13.8878 21.5 16.8333C21.5 19.7789 19.1122 22.1667 16.1667 22.1667H12.5V11.5Z" fill="#FFFFFF"/>
  <path d="M42 21V10.8182H43.9091L49.3636 18.1212H49.4545V10.8182H51.4091V21H49.5L44.0455 13.697H43.9545V21H42Z" fill="#2F7EA1"/>
  <path d="M57.6484 21.1591C55.2614 21.1591 53.6484 19.5455 53.6484 17.0909V10.8182H55.603V16.8939C55.603 18.2727 56.4439 19.1818 57.6939 19.1818C58.9439 19.1818 59.7848 18.2727 59.7848 16.8939V10.8182H61.7393V17.0909C61.7393 19.5455 60.0801 21.1591 57.6484 21.1591Z" fill="#4A4A4A"/>
  <path d="M66.1602 21V10.8182H68.1147V19.0227H72.5465V21H66.1602Z" fill="#4A4A4A"/>
  <path d="M77.1445 21V10.8182H79.0991V21H77.1445Z" fill="#4A4A4A"/>
  <path d="M84.8711 21V10.8182H86.7802L92.2347 18.1212H92.3256V10.8182H94.2802V21H92.3711L86.9165 13.697H86.8256V21H84.8711Z" fill="#4A4A4A"/>
  <path d="M99.1211 21V10.8182H105.962V12.7955H101.076V14.9318H105.53V16.9091H101.076V19.0227H106.03V21H99.1211Z" fill="#4A4A4A"/>
  <path d="M110.406 21V10.8182H114.36C116.678 10.8182 118.178 12.1136 118.178 14.0909C118.178 15.4318 117.519 16.4091 116.383 16.8182L118.497 21H116.292L114.383 17.1818H112.36V21H110.406ZM112.36 15.25H114.247C115.36 15.25 116.178 14.7727 116.178 14.0909C116.178 13.4091 115.36 12.9318 114.247 12.9318H112.36V15.25Z" fill="#4A4A4A"/>
  <path d="M121.824 21V10.8182H128.665V12.7955H123.778V14.9318H128.233V16.9091H123.778V19.0227H128.733V21H121.824Z" fill="#4A4A4A"/>
</svg>
